<?xml version="1.0" encoding="UTF-8"?>
<svg version="1.1" xmlns="http://www.w3.org/2000/svg" width="445" height="330">
<path d="M0 0 C1.00289062 0.10183594 2.00578125 0.20367187 3.0390625 0.30859375 C3.80992187 0.39238281 4.58078125 0.47617188 5.375 0.5625 C5.40026945 7.2377034 5.41783268 13.91289457 5.42993164 20.58813477 C5.43497325 22.86092591 5.44180637 25.1337138 5.45043945 27.40649414 C5.46251261 30.66553551 5.46822987 33.92453417 5.47265625 37.18359375 C5.47781754 38.20650009 5.48297882 39.22940643 5.48829651 40.28330994 C5.48837204 41.22420975 5.48844757 42.16510956 5.48852539 43.13452148 C5.490746 43.96725082 5.49296661 44.79998016 5.49525452 45.65794373 C5.375 47.5625 5.375 47.5625 4.375 48.5625 C-0.26331157 49.74481471 -4.02100925 49.95500167 -8.625 48.5625 C-13.18828724 44.25090843 -15.78290823 38.05497415 -18.625 32.5625 C-20.605 29.2625 -22.585 25.9625 -24.625 22.5625 C-24.955 31.1425 -25.285 39.7225 -25.625 48.5625 C-34.535 48.5625 -43.445 48.5625 -52.625 48.5625 C-53.615 45.5925 -54.605 42.6225 -55.625 39.5625 C-56.945 39.8925 -58.265 40.2225 -59.625 40.5625 C-61.87407152 40.63040675 -64.12501605 40.64749984 -66.375 40.625 C-67.54546875 40.61597656 -68.7159375 40.60695312 -69.921875 40.59765625 C-70.81390625 40.58605469 -71.7059375 40.57445312 -72.625 40.5625 C-72.769375 41.67625 -72.91375 42.79 -73.0625 43.9375 C-73.625 47.5625 -73.625 47.5625 -74.625 49.5625 C-77.56640625 49.9765625 -77.56640625 49.9765625 -81.1875 50.1875 C-82.38503906 50.26226562 -83.58257812 50.33703125 -84.81640625 50.4140625 C-85.74324219 50.46304688 -86.67007813 50.51203125 -87.625 50.5625 C-88.625 47.5625 -88.625 47.5625 -88.625 45.5625 C-89.346875 46.18125 -90.06875 46.8 -90.8125 47.4375 C-97.13415109 52.2138586 -104.30870858 52.86970143 -112.05859375 52.421875 C-118.33053066 51.42184346 -122.46556389 48.27110371 -126.625 43.5625 C-128.30505004 40.48240825 -128.625 39.05621214 -128.625 35.5625 C-125.60909804 34.55719935 -123.28789965 34.29803144 -120.125 34.1875 C-119.1659375 34.13851562 -118.206875 34.08953125 -117.21875 34.0390625 C-116.3628125 34.21179688 -115.506875 34.38453125 -114.625 34.5625 C-114.14417969 35.38878906 -113.66335937 36.21507812 -113.16796875 37.06640625 C-112.65878906 37.89011719 -112.14960937 38.71382812 -111.625 39.5625 C-108.66118482 40.16731772 -108.66118482 40.16731772 -105.4375 39.875 C-104.35082031 39.82988281 -103.26414062 39.78476563 -102.14453125 39.73828125 C-100.89736328 39.65126953 -100.89736328 39.65126953 -99.625 39.5625 C-99.625 37.9125 -99.625 36.2625 -99.625 34.5625 C-100.60339844 34.46453125 -101.58179687 34.3665625 -102.58984375 34.265625 C-119.5509147 32.3310289 -119.5509147 32.3310289 -126.125 26.25 C-128.02564873 22.84467103 -128.55763776 20.46950967 -128.625 16.5625 C-126.94957139 10.84633179 -124.51232006 7.91654318 -119.625 4.5625 C-112.8264206 1.8601358 -105.23363535 1.21982671 -98.14453125 3.28515625 C-93.96418565 5.22238957 -90.97646554 7.51797928 -88.625 11.5625 C-87.875 15.375 -87.875 15.375 -87.625 18.5625 C-94.06 19.0575 -94.06 19.0575 -100.625 19.5625 C-101.285 18.2425 -101.945 16.9225 -102.625 15.5625 C-105.61094424 14.06952788 -108.33353624 14.44494772 -111.625 14.5625 C-112.615 15.0575 -112.615 15.0575 -113.625 15.5625 C-113.625 16.5525 -113.625 17.5425 -113.625 18.5625 C-112.33464844 18.79324219 -111.04429688 19.02398437 -109.71484375 19.26171875 C-107.99721967 19.59022609 -106.2797812 19.91970494 -104.5625 20.25 C-103.71494141 20.39888672 -102.86738281 20.54777344 -101.99414062 20.70117188 C-96.03415919 21.87475895 -92.11102769 23.3850653 -87.625 27.5625 C-86.635 30.2025 -85.645 32.8425 -84.625 35.5625 C-80.665 24.3425 -76.705 13.1225 -72.625 1.5625 C-68.005 1.2325 -63.385 0.9025 -58.625 0.5625 C-56.43681671 3.48007772 -55.14817786 5.30687313 -53.81567383 8.50488281 C-53.49556839 9.26536926 -53.17546295 10.02585571 -52.84565735 10.80938721 C-52.51116074 11.61994568 -52.17666412 12.43050415 -51.83203125 13.265625 C-51.30569344 14.52230988 -51.30569344 14.52230988 -50.76872253 15.80438232 C-49.65303422 18.47158562 -48.54517754 21.14196131 -47.4375 23.8125 C-46.68085335 25.62521497 -45.92369766 27.43771755 -45.16601562 29.25 C-43.31310215 33.68506027 -41.46720407 38.12298125 -39.625 42.5625 C-39.63023682 41.3257251 -39.63547363 40.0889502 -39.64086914 38.81469727 C-39.65891561 34.24325275 -39.67043071 29.67181141 -39.67993164 25.1003418 C-39.68497267 23.11856559 -39.69180538 21.13679311 -39.70043945 19.1550293 C-39.71251515 16.31297891 -39.71823045 13.47097753 -39.72265625 10.62890625 C-39.72781754 9.73724258 -39.73297882 8.84557892 -39.73829651 7.92689514 C-39.73849177 5.80509399 -39.6871003 3.6833922 -39.625 1.5625 C-37.25077899 -0.81172101 -32.74747844 -0.33490674 -29.56079102 -0.44873047 C-25.41939897 -0.27668451 -23.79121074 0.39722171 -20.83984375 3.33203125 C-18.41412836 6.89269162 -16.55559229 10.71619474 -14.625 14.5625 C-12.645 17.8625 -10.665 21.1625 -8.625 24.5625 C-8.295 16.6425 -7.965 8.7225 -7.625 0.5625 C-4.89657939 -0.80171031 -3.01546682 -0.31557211 0 0 Z M-65.625 18.5625 C-67.11 24.0075 -67.11 24.0075 -68.625 29.5625 C-64.48406302 29.77220559 -64.48406302 29.77220559 -60.625 28.5625 C-61.615 25.2625 -62.605 21.9625 -63.625 18.5625 C-64.285 18.5625 -64.945 18.5625 -65.625 18.5625 Z M-86.625 39.5625 C-85.625 41.5625 -85.625 41.5625 -85.625 41.5625 Z " fill="#65AC41" transform="translate(216.625,104.4375)"/>
<path d="M0 0 C5.28 0 10.56 0 16 0 C16 6.93 16 13.86 16 21 C21.17578125 20.95117188 21.17578125 20.95117188 26.3515625 20.90234375 C29.67723791 20.99136076 32.74047588 21.36313913 36 22 C35.99476318 21.36908447 35.98952637 20.73816895 35.98413086 20.08813477 C35.96342174 17.24626653 35.95035934 14.40441412 35.9375 11.5625 C35.92912109 10.56927734 35.92074219 9.57605469 35.91210938 8.55273438 C35.90888672 7.60849609 35.90566406 6.66425781 35.90234375 5.69140625 C35.89710693 4.81685791 35.89187012 3.94230957 35.88647461 3.04125977 C36 1 36 1 37 0 C39.53049402 -0.07313567 42.03304837 -0.09247527 44.5625 -0.0625 C45.62887695 -0.05573242 45.62887695 -0.05573242 46.71679688 -0.04882812 C48.47790013 -0.03700864 50.23896036 -0.01907263 52 0 C53.34108417 4.02325252 53.03004835 7.83773155 52.9140625 12.0234375 C52.89282318 12.92059479 52.87158386 13.81775208 52.84970093 14.74209595 C52.80340557 16.64697564 52.75447462 18.55179282 52.703125 20.45654297 C52.6262319 23.32898068 52.55849959 26.20151953 52.4921875 29.07421875 C52.25556233 38.7455626 51.91001408 48.3646896 51 58 C48.52076199 58.02685095 46.0418116 58.04676547 43.5625 58.0625 C42.85544922 58.07087891 42.14839844 58.07925781 41.41992188 58.08789062 C39.61306441 58.09653588 37.80612397 58.05220011 36 58 C35 57 35 57 34.97827148 54.86694336 C35.02540283 53.95050049 35.07253418 53.03405762 35.12109375 52.08984375 C35.16943359 51.10048828 35.21777344 50.11113281 35.26757812 49.09179688 C35.32365234 48.05087891 35.37972656 47.00996094 35.4375 45.9375 C35.48970703 44.89271484 35.54191406 43.84792969 35.59570312 42.77148438 C35.72583121 40.18075249 35.86232851 37.59034199 36 35 C29.4 35 22.8 35 16 35 C16.01160156 36.57652344 16.02320313 38.15304688 16.03515625 39.77734375 C16.04453243 41.83072799 16.05363282 43.8841135 16.0625 45.9375 C16.07087891 46.97841797 16.07925781 48.01933594 16.08789062 49.09179688 C16.09272461 50.57583008 16.09272461 50.57583008 16.09765625 52.08984375 C16.10551147 53.46450806 16.10551147 53.46450806 16.11352539 54.86694336 C16 57 16 57 15 58 C12.66839945 58.09909302 10.33370058 58.12970504 8 58.125 C6.72125 58.12757813 5.4425 58.13015625 4.125 58.1328125 C1 58 1 58 0 57 C-0.09370624 55.22008076 -0.11744271 53.43643261 -0.11352539 51.65405273 C-0.11344986 50.5129454 -0.11337433 49.37183807 -0.11329651 48.19615173 C-0.10813522 46.9545076 -0.10297394 45.71286346 -0.09765625 44.43359375 C-0.0962413 43.16983414 -0.09482635 41.90607452 -0.09336853 40.60401917 C-0.08870582 37.23875111 -0.0797148 33.8735501 -0.06866455 30.50830078 C-0.05844846 27.0765033 -0.05387049 23.64469891 -0.04882812 20.21289062 C-0.0377738 13.47523936 -0.02049637 6.73762889 0 0 Z " fill="#DB1F3C" transform="translate(209,160)"/>
<path d="M0 0 C4.62 0 9.24 0 14 0 C14 14.19 14 28.38 14 43 C18.0088962 34.04200153 18.0088962 34.04200153 22.01611328 25.08325195 C25.62325195 17.02980207 29.28267393 9.00335388 33 1 C38.15505593 0.90956042 42.88444017 1.24533089 48 2 C50.94038538 10.76551567 53.8687196 19.53492717 56.77734375 28.31103516 C57.51018871 30.52215483 58.2441773 32.73289669 58.98046875 34.94287109 C59.72581352 37.18809099 60.45977505 39.43652128 61.1875 41.6875 C61.57292969 42.86699219 61.95835937 44.04648438 62.35546875 45.26171875 C63 48 63 48 62 51 C52.2651622 51.33568406 52.2651622 51.33568406 48 49 C46.625 45.375 46.625 45.375 46 42 C40.59280411 41.07962623 35.48677955 40.91558801 30 41 C28.68 43.64 27.36 46.28 26 49 C25.14019531 48.9278125 24.28039062 48.855625 23.39453125 48.78125 C21.62142578 48.64203125 21.62142578 48.64203125 19.8125 48.5 C18.08966797 48.36078125 18.08966797 48.36078125 16.33203125 48.21875 C10.56269865 47.84830878 4.77808988 47.96046541 -1 48 C-1.11862496 31.96373068 -0.96093685 16.00989437 0 0 Z M39 18 C38.32880451 19.4562545 37.66318193 20.91507867 37 22.375 C36.62875 23.18710938 36.2575 23.99921875 35.875 24.8359375 C34.87504987 26.91998433 34.87504987 26.91998433 35 29 C37.64 29.33 40.28 29.66 43 30 C42.01 26.04 41.02 22.08 40 18 C39.67 18 39.34 18 39 18 Z " fill="#65AB40" transform="translate(273,106)"/>
<path d="M0 0 C1.30940552 0.05160278 1.30940552 0.05160278 2.64526367 0.10424805 C3.62366211 0.14235596 4.60206055 0.18046387 5.61010742 0.21972656 C6.66713867 0.26798584 7.72416992 0.31624512 8.81323242 0.3659668 C9.88444336 0.41229248 10.9556543 0.45861816 12.05932617 0.50634766 C22.08277917 0.98101029 32.03304029 1.91776736 42.00073242 3.0534668 C41.67073242 7.3434668 41.34073242 11.6334668 41.00073242 16.0534668 C21.0776555 16.32269757 21.0776555 16.32269757 12.00073242 14.0534668 C12.00073242 17.0234668 12.00073242 19.9934668 12.00073242 23.0534668 C12.97683472 23.09105103 12.97683472 23.09105103 13.97265625 23.12939453 C16.91971289 23.24540381 19.86645373 23.36810795 22.81323242 23.4909668 C24.34947266 23.54994141 24.34947266 23.54994141 25.91674805 23.61010742 C26.8996582 23.65200195 27.88256836 23.69389648 28.89526367 23.73706055 C29.80123291 23.77371826 30.70720215 23.81037598 31.640625 23.84814453 C34.00073242 24.0534668 34.00073242 24.0534668 37.00073242 25.0534668 C37.00073242 28.6834668 37.00073242 32.3134668 37.00073242 36.0534668 C32.94384324 38.08191139 32.04029565 38.25528155 27.79760742 37.8112793 C26.32807617 37.66625977 26.32807617 37.66625977 24.82885742 37.51831055 C23.81307617 37.40616211 22.79729492 37.29401367 21.75073242 37.1784668 C20.71948242 37.07405273 19.68823242 36.96963867 18.62573242 36.86206055 C16.08278276 36.60305641 13.5414754 36.33316416 11.00073242 36.0534668 C11.00073242 39.0234668 11.00073242 41.9934668 11.00073242 45.0534668 C11.77787598 45.10881592 12.55501953 45.16416504 13.35571289 45.22119141 C16.86271616 45.47341638 20.36921279 45.73210854 23.87573242 45.9909668 C25.09905273 46.07797852 26.32237305 46.16499023 27.58276367 46.25463867 C28.74936523 46.34165039 29.9159668 46.42866211 31.11791992 46.51831055 C32.73609619 46.63613892 32.73609619 46.63613892 34.38696289 46.75634766 C37.00073242 47.0534668 37.00073242 47.0534668 39.00073242 48.0534668 C39.07797422 52.61073308 38.99369654 56.58903755 38.00073242 61.0534668 C23.30463554 60.38785097 8.65940679 59.28684209 -5.99926758 58.0534668 C-5.56599552 44.38426188 -4.98675406 30.72970343 -4.13031006 17.08059692 C-4.0428575 15.68606064 -3.95696382 14.29142573 -3.87261963 12.896698 C-3.75321187 10.93692174 -3.62641468 8.97759991 -3.49926758 7.01831055 C-3.42708008 5.89030029 -3.35489258 4.76229004 -3.28051758 3.60009766 C-2.89146266 0.07732694 -2.89146266 0.07732694 0 0 Z " fill="#D91E3B" transform="translate(329.999267578125,162.946533203125)"/>
<path d="M0 0 C0.16727437 4.25392767 0.32786758 8.50803809 0.48217773 12.76245117 C0.53566237 14.21076301 0.59099659 15.65900775 0.64819336 17.10717773 C0.72992512 19.18458582 0.80507768 21.2621417 0.87890625 23.33984375 C0.94960327 25.21724243 0.94960327 25.21724243 1.02172852 27.13256836 C1 30 1 30 0 31 C-3.29934827 32.11205712 -5.72621268 32.23078458 -9 31 C-12.81377629 26.97220709 -15.38470001 21.84726995 -18 17 C-18 21.62 -18 26.24 -18 31 C-20.64 31.33 -23.28 31.66 -26 32 C-26.66 29.69 -27.32 27.38 -28 25 C-28.70125 25.763125 -29.4025 26.52625 -30.125 27.3125 C-34.31331994 31.22766864 -37.75938931 33.15346637 -43.5 33.375 C-48.87494186 33.17626265 -52.41503726 31.45983411 -56.375 27.8125 C-57.179375 26.9153125 -57.179375 26.9153125 -58 26 C-58.53625 26.928125 -59.0725 27.85625 -59.625 28.8125 C-62.29745671 32.39921822 -63.79085151 33.57047787 -68 35 C-72.73102869 35.6879952 -76.0144134 35.50209129 -80.3125 33.3125 C-84.43247113 29.76740856 -87.57885147 26.56250233 -88.23828125 20.984375 C-88.43483911 15.06694876 -87.47284395 11.82339437 -84 7 C-79.58384542 2.98531401 -75.26931596 2.66050599 -69.51171875 2.7109375 C-65.8581754 3.1314075 -63.73141696 4.61001016 -61 7 C-60.01 8.485 -60.01 8.485 -59 10 C-58.62488281 9.51789063 -58.24976562 9.03578125 -57.86328125 8.5390625 C-54.15375809 3.96055784 -51.73632779 1.39561118 -45.67578125 0.75390625 C-39.91128581 0.46955894 -36.49011394 1.05746093 -32 5 C-30.125 7.25 -30.125 7.25 -29 9 C-29.04125 7.88625 -29.0825 6.7725 -29.125 5.625 C-29 2 -29 2 -27 0 C-23.73701384 -1.1305367 -21.23932863 -1.22694064 -18 0 C-14.70435251 4.03404627 -12.33899209 8.36025547 -10 13 C-9.505 6.565 -9.505 6.565 -9 0 C-5.16380575 -0.95904856 -3.67568464 -0.91892116 0 0 Z M-49 12 C-49.47440869 14.40513863 -49.47440869 14.40513863 -49.375 17 C-49.38273437 17.86625 -49.39046875 18.7325 -49.3984375 19.625 C-49.17083968 22.04077268 -49.17083968 22.04077268 -47.703125 23.82421875 C-45.84660998 25.36152122 -45.84660998 25.36152122 -42.375 24.8125 C-40.704375 24.4103125 -40.704375 24.4103125 -39 24 C-37.77308933 21.54617866 -37.79824069 19.80015897 -37.75 17.0625 C-37.72421875 16.18722656 -37.6984375 15.31195313 -37.671875 14.41015625 C-37.80566272 11.95147002 -37.80566272 11.95147002 -39.359375 10.20703125 C-43.08567909 7.4655361 -46.36862894 8.55666301 -49 12 Z M-76.8125 12 C-78.70227055 15.18277146 -78.40184648 18.44078834 -78 22 C-77.49166762 24.44162567 -77.49166762 24.44162567 -76 26 C-73.65127469 27.16977494 -73.65127469 27.16977494 -71 27 C-68.60371845 25.35380651 -68.60371845 25.35380651 -67 23 C-67 22.01 -67 21.02 -67 20 C-64.36 20 -61.72 20 -59 20 C-59 18.68 -59 17.36 -59 16 C-61.97 16 -64.94 16 -68 16 C-68.33 14.68 -68.66 13.36 -69 12 C-70.04703565 10.74323161 -70.04703565 10.74323161 -72.375 10.75 C-74.95865763 10.82040745 -74.95865763 10.82040745 -76.8125 12 Z " fill="#020101" transform="translate(140,175)"/>
<path d="M0 0 C4.35844365 3.58360922 7.03407234 7.97721703 8.8125 13.3125 C8.8125 15.6225 8.8125 17.9325 8.8125 20.3125 C3.8625 20.3125 -1.0875 20.3125 -6.1875 20.3125 C-6.661875 18.86875 -7.13625 17.425 -7.625 15.9375 C-8.85581496 13.16598406 -9.52891473 11.67484904 -12.2109375 10.19921875 C-17.17468101 8.9540476 -21.6741095 8.69473351 -26.1875 11.3125 C-29.69052191 18.12527365 -29.94200046 25.95529475 -28.1875 33.3125 C-26.7917661 36.4013198 -25.30293028 38.75478486 -22.1875 40.3125 C-18.80247085 40.72530843 -15.56710285 40.79373795 -12.1875 40.3125 C-8.29514259 37.0039962 -7.86605221 34.34815663 -6.1875 29.3125 C-1.2375 29.3125 3.7125 29.3125 8.8125 29.3125 C8.8125 36.89350004 8.02358758 41.55777457 3.08203125 47.3359375 C-3.06641475 53.15303013 -9.29194291 55.39476788 -17.6875 55.6875 C-26.74045621 55.35967707 -32.64946963 52.75534646 -39.23828125 46.5 C-45.7629438 39.17773341 -46.5190223 31.09515006 -46.390625 21.59375 C-45.82302509 12.42482834 -42.02563687 6.39490695 -35.1875 0.3125 C-23.93466859 -7.0740783 -11.5053275 -6.09105574 0 0 Z " fill="#DA203C" transform="translate(198.1875,163.6875)"/>
<path d="M0 0 C4.145697 -0.0879568 8.29115012 -0.14071153 12.4375 -0.1875 C13.60216797 -0.21263672 14.76683594 -0.23777344 15.96679688 -0.26367188 C25.60205243 -0.34509657 33.35232061 0.64777205 40.5625 7.390625 C44.73281317 12.05956257 45.77641279 17.14926301 46.25 23.1875 C45.797348 30.09044307 44.23619432 37.17718944 39 42 C32.48833871 46.28816719 27.12454237 48.1237377 19.296875 48.1328125 C18.2346875 48.13410156 17.1725 48.13539063 16.078125 48.13671875 C14.97984375 48.13285156 13.8815625 48.12898438 12.75 48.125 C11.63625 48.12886719 10.5225 48.13273437 9.375 48.13671875 C8.31796875 48.13542969 7.2609375 48.13414062 6.171875 48.1328125 C4.7192627 48.13112061 4.7192627 48.13112061 3.23730469 48.12939453 C1 48 1 48 0 47 C-0.09304018 45.52645652 -0.11746265 44.04849409 -0.11352539 42.57202148 C-0.11344986 41.63112167 -0.11337433 40.69022186 -0.11329651 39.72080994 C-0.10813522 38.69790359 -0.10297394 37.67499725 -0.09765625 36.62109375 C-0.0962413 35.57929459 -0.09482635 34.53749542 -0.09336853 33.46412659 C-0.0877508 30.12188906 -0.0751953 26.77971743 -0.0625 23.4375 C-0.05748728 21.17773534 -0.05292398 18.91796963 -0.04882812 16.65820312 C-0.03777561 11.10544609 -0.02102024 5.55272775 0 0 Z M14 11 C14 19.25 14 27.5 14 36 C24.03532046 36.94324222 24.03532046 36.94324222 28.125 34.125 C31.11184077 30.73991379 31.18410859 28.64066141 31.25 24.1875 C31.27578125 23.14980469 31.3015625 22.11210938 31.328125 21.04296875 C30.9553206 17.58565175 30.07932924 15.76260764 28 13 C23.00764481 10.56187305 19.92295972 11 14 11 Z " fill="#65AC40" transform="translate(225,105)"/>
<path d="M0 0 C0.87140625 0.00257813 1.7428125 0.00515625 2.640625 0.0078125 C3.50171875 0.00523437 4.3628125 0.00265625 5.25 0 C7.88837477 0.13269932 10.31762377 0.54972229 12.890625 1.1328125 C13.03028071 15.83318774 12.69729842 30.45393082 11.890625 45.1328125 C12.79155884 45.17039673 12.79155884 45.17039673 13.71069336 45.20874023 C16.41673937 45.3243653 19.12240783 45.44724186 21.828125 45.5703125 C22.77365234 45.60962891 23.71917969 45.64894531 24.69335938 45.68945312 C26.04204102 45.75229492 26.04204102 45.75229492 27.41796875 45.81640625 C28.66694946 45.87139282 28.66694946 45.87139282 29.94116211 45.92749023 C31.890625 46.1328125 31.890625 46.1328125 32.890625 47.1328125 C32.80060102 49.15690005 32.64421462 51.17825537 32.453125 53.1953125 C32.35128906 54.30003906 32.24945313 55.40476563 32.14453125 56.54296875 C32.06074219 57.39761719 31.97695313 58.25226563 31.890625 59.1328125 C27.60466474 60.23223881 23.80285426 60.09101129 19.40234375 59.79296875 C18.69914505 59.74716171 17.99594635 59.70135468 17.2714386 59.65415955 C15.03987232 59.50737802 12.80905178 59.35148459 10.578125 59.1953125 C9.05928501 59.09379745 7.54040499 58.99287957 6.02148438 58.89257812 C2.31070933 58.6462341 -1.39945278 58.39171798 -5.109375 58.1328125 C-4.20244017 20.06779528 -4.20244017 20.06779528 -3.609375 8.3203125 C-3.57400635 7.57096436 -3.5386377 6.82161621 -3.50219727 6.04956055 C-3.1756708 0.19994964 -3.1756708 0.19994964 0 0 Z " fill="#D91D3A" transform="translate(289.109375,160.8671875)"/>
<path d="M0 0 C2.53541298 0.09086451 5.03554784 0.2370945 7.5625 0.4375 C8.62887695 0.51581055 8.62887695 0.51581055 9.71679688 0.59570312 C11.47821999 0.72574107 13.23916173 0.86226897 15 1 C15.14989234 11.42584478 14.89928592 21.82944735 14.5625 32.25 C14.52326416 33.51602051 14.48402832 34.78204102 14.44360352 36.08642578 C14.1830836 43.7500117 13.72112637 51.36579346 13 59 C10.89590361 59.02701408 8.79170822 59.04640223 6.6875 59.0625 C5.51574219 59.07410156 4.34398437 59.08570313 3.13671875 59.09765625 C0 59 0 59 -3 58 C-2.88171958 51.32874159 -2.75690812 44.65762762 -2.62768555 37.98657227 C-2.5845358 35.71999845 -2.54284784 33.4533963 -2.50268555 31.18676758 C-2.4444963 27.91739381 -2.3809453 24.6481601 -2.31640625 21.37890625 C-2.29969376 20.37541641 -2.28298126 19.37192657 -2.26576233 18.33802795 C-1.92487043 1.92487043 -1.92487043 1.92487043 0 0 Z " fill="#DB1C39" transform="translate(267,160)"/>
<path d="M0 0 C3.62536388 1.50319966 5.64211948 3.73476481 7.5625 7.0625 C9.32880793 11.53821241 9.95967571 14.80088305 8.5 19.4375 C6.32468404 22.38470228 4.98402317 23.74054786 1.5625 25.0625 C-2.68523336 25.0625 -4.85820506 24.45691358 -8.375 22.0625 C-10.80551113 18.52721108 -11.10834183 16.54478847 -10.86328125 12.34375 C-9.99882535 7.71216979 -7.7787905 4.44705793 -4.5 1.0625 C-2.4375 0.0625 -2.4375 0.0625 0 0 Z " fill="#272727" transform="translate(213.4375,238.9375)"/>
<path d="M0 0 C2.83344852 2.21748145 4.53809643 3.96071697 6 7.25 C6 12.94752367 4.04453206 17.58847019 0.6875 22.125 C-2 24 -2 24 -5 24.1875 C-9.13142929 22.55214257 -10.45674001 20.63322856 -13 17 C-14.35137668 12.94586996 -14.68341294 9.23418885 -14 5 C-9.58491896 -0.57694447 -6.89565639 -1.63625745 0 0 Z " fill="#272727" transform="translate(217,57)"/>
<path d="M0 0 C5.31504013 0.11596451 8.57154708 2.69654708 12.25 6.375 C12.91666667 13.26388889 12.91666667 13.26388889 10.75 16.875 C7.89042365 18.59074581 5.557646 19.05575281 2.21875 18.90625 C-1.43213046 17.92109178 -2.71911118 15.45210427 -4.75 12.375 C-5.86445498 10.14609005 -5.91480286 8.84444894 -5.9375 6.375 C-5.95167969 5.67375 -5.96585938 4.9725 -5.98046875 4.25 C-5.50371373 0.3713151 -3.59410445 0.35941044 0 0 Z " fill="#222222" transform="translate(246.75,235.625)"/>
<path d="M0 0 C2.93350708 0.09600569 4.03741536 0.32244921 6.625 1.875 C8.34074581 4.73457635 8.80575281 7.067354 8.65625 10.40625 C7.67109178 14.05713046 5.20210427 15.34411118 2.125 17.375 C-0.10390995 18.48945498 -1.40555106 18.53980286 -3.875 18.5625 C-4.926875 18.58376953 -4.926875 18.58376953 -6 18.60546875 C-7.875 18.375 -7.875 18.375 -9.875 16.375 C-10.48804908 10.24450919 -9.86748422 7.30689228 -5.875 2.375 C-3.875 0.375 -3.875 0.375 0 0 Z " fill="#242424" transform="translate(250.875,65.625)"/>
<path d="M0 0 C2.4702708 2.4702708 2.76871663 3.53074952 3 7 C1.49913668 11.50258996 -0.03558448 15.24693367 -4 18 C-7.4375 18.5625 -7.4375 18.5625 -11 18 C-14.38677089 15.54999553 -15.78698584 14.13607554 -16.5625 10 C-15.74853518 5.6588543 -13.74365974 3.30774481 -10.25 0.6875 C-6.72141537 -0.39067864 -3.688528 -0.23796955 0 0 Z " fill="#232323" transform="translate(182,236)"/>
<path d="M0 0 C4.37908503 0.92191264 5.77036156 2.38651657 8.3984375 5.87890625 C9.8785245 8.25797227 10.5625 9.93098846 10.5625 12.75 C9.1625 17.15 9.1625 17.15 7.5625 18.75 C1.47163193 19.26617526 -1.56993768 18.80630193 -6.4375 14.75 C-8.78299674 11.23175489 -9.01741403 9.89224306 -8.4375 5.75 C-5.86593786 2.16539823 -4.32685975 0.94404213 0 0 Z " fill="#262625" transform="translate(174.4375,65.25)"/>
<path d="M0 0 C3.68462127 0.38030778 7.06546026 1.27845805 10.5 2.6875 C9.03497827 4.42599245 7.56087125 6.15333443 6.0625 7.86328125 C4.40813623 9.74213715 4.40813623 9.74213715 2.75 12.125 C-0.9659372 14.70551194 -5.11787542 13.98856199 -9.5 13.6875 C-10.49188902 11.08229751 -10.60968837 9.97555121 -9.6015625 7.328125 C-5.12364124 0.07815724 -5.12364124 0.07815724 0 0 Z " fill="#51932C" transform="translate(285.5,90.3125)"/>
<path d="M0 0 C0.8353125 0.37125 0.8353125 0.37125 1.6875 0.75 C0.98625 1.141875 0.285 1.53375 -0.4375 1.9375 C-3.67324432 3.97742577 -6.41507782 6.25686929 -9.3125 8.75 C-7.925165 4.2096309 -5.3700603 -0.58054706 0 0 Z " fill="#141414" transform="translate(213.3125,239.25)"/>
</svg>
